<svg width="40" height="40" viewBox="0 0 40 40" fill="none" xmlns="http://www.w3.org/2000/svg">
<circle cx="20" cy="20" r="20" fill="#E2FFDC"/>
<path d="M27.3399 23.49L26.3399 21.83C26.1299 21.46 25.9399 20.76 25.9399 20.35V17.82C25.9399 15.47 24.5599 13.44 22.5699 12.49C22.0499 11.57 21.0899 11 19.9899 11C18.8999 11 17.9199 11.59 17.3999 12.52C15.4499 13.49 14.0999 15.5 14.0999 17.82V20.35C14.0999 20.76 13.9099 21.46 13.6999 21.82L12.6899 23.49C12.2899 24.16 12.1999 24.9 12.4499 25.58C12.6899 26.25 13.2599 26.77 13.9999 27.02C15.9399 27.68 17.9799 28 20.0199 28C22.0599 28 24.0999 27.68 26.0399 27.03C26.7399 26.8 27.2799 26.27 27.5399 25.58C27.7999 24.89 27.7299 24.13 27.3399 23.49Z" fill="black"/>
<path d="M22.8297 29.01C22.4097 30.17 21.2997 31 19.9997 31C19.2097 31 18.4297 30.68 17.8797 30.11C17.5597 29.81 17.3197 29.41 17.1797 29C17.3097 29.02 17.4397 29.03 17.5797 29.05C17.8097 29.08 18.0497 29.11 18.2897 29.13C18.8597 29.18 19.4397 29.21 20.0197 29.21C20.5897 29.21 21.1597 29.18 21.7197 29.13C21.9297 29.11 22.1397 29.1 22.3397 29.07C22.4997 29.05 22.6597 29.03 22.8297 29.01Z" fill="black"/>
</svg>
