<svg width="50" height="49" viewBox="0 0 50 49" fill="none" xmlns="http://www.w3.org/2000/svg">
<path d="M38.1686 31.0636L37.1276 29.2546L21.8164 37.7417L22.8601 39.6017C23.7354 41.1617 24.8238 42.1313 26.0632 42.4924C27.3026 42.8536 28.7239 42.6153 30.2654 41.7596L36.1149 38.5121C39.2613 36.7523 39.9487 34.2591 38.1686 31.0636Z" fill="#0979A6"/>
<path d="M26.554 10.3626C24.792 7.22265 22.2358 6.47776 19.1332 8.20022L13.2682 11.4431C10.1811 13.1701 9.47656 15.7252 11.223 18.8607L12.2555 20.7007L27.571 12.1981L26.554 10.3626Z" fill="#0979A6"/>
<path d="M43.3496 16.9472C39.9239 21.4196 33.4686 26.6821 27.8621 29.7159C28.3285 25.5355 25.9996 21.4775 22.1253 19.7462C27.6842 16.5814 35.6396 13.8305 41.2847 13.2672C42.2771 13.1883 43.1031 13.7134 43.5071 14.4334C43.9336 15.1934 43.9691 16.1574 43.3496 16.9472Z" fill="#0979A6"/>
<path d="M26.1484 30.5885C25.766 30.7615 25.3835 30.9345 25.0054 31.092L21.6217 32.4983C21.6345 32.4518 21.6361 32.3854 21.6532 32.3234C21.8931 30.6033 21.5412 28.8445 20.6322 27.2245C19.712 25.5845 18.3452 24.3497 16.6699 23.6273C16.6234 23.6138 16.5657 23.5802 16.5192 23.5667L19.5469 21.3874C19.8407 21.1719 20.1457 20.9764 20.4704 20.7699L21.4854 21.2162C24.6882 22.6514 26.6468 26.0494 26.2598 29.5168L26.1484 30.5885Z" fill="#0979A6"/>
<path d="M19.878 32.9945C19.4083 34.6979 18.3093 36.1343 16.7326 36.9965C15.5229 37.6812 14.0732 37.9614 12.4727 37.6958L8.56185 37.0078C6.42185 36.6352 5.13125 34.3352 5.94004 32.3124L7.40866 28.6248C8.71554 25.3418 12.1484 24 15.1709 24.8139C15.4696 24.8841 15.7906 24.9944 16.0919 25.1157C17.3618 25.6698 18.4657 26.6439 19.2443 28.0084C19.9962 29.3484 20.2476 30.7433 20.0636 32.0783C20.0092 32.397 19.9591 32.7003 19.878 32.9945Z" fill="#0979A6"/>
<path d="M35.4589 4.259C36.4017 3.17708 37.615 1.93899 39.155 1.93899C40.4476 1.88523 41.4597 2.31084 42.543 2.87798C43.7716 3.52124 45.8345 3.92447 46.7462 2.59116" stroke="#0979A6" stroke-width="2" stroke-linecap="round"/>
<path d="M37.7089 8.90109C38.6517 7.81917 39.865 6.58108 41.405 6.58108C42.6976 6.52732 43.7097 6.95293 44.793 7.52007C46.0216 8.16333 48.0845 8.56656 48.9962 7.23325" stroke="#0979A6" stroke-width="2" stroke-linecap="round"/>
</svg>
