<svg width="48" height="48" viewBox="0 0 48 48" fill="none" xmlns="http://www.w3.org/2000/svg">
<path d="M19.7429 26.949L25.0623 26.0894L27.0675 38.4863C27.3627 40.3114 29.7744 40.8051 30.7566 39.233L41.3932 22.3198C42.3205 20.8448 41.0823 18.9778 39.3608 19.2559L34.0414 20.1155L32.0361 7.71862C31.7409 5.89353 29.3293 5.39983 28.347 6.97198L17.7105 23.8852C16.8004 25.3574 18.0386 27.2244 19.7429 26.949Z" fill="#0979A6"/>
<path d="M15.9561 12.4908L3.90566 14.438C3.19984 14.5521 2.51984 14.0612 2.40566 13.3553C2.29147 12.6494 2.78209 11.9694 3.4879 11.8553L15.5384 9.90808C16.2442 9.79402 16.9242 10.2849 17.0384 10.9908C17.1526 11.6967 16.6619 12.3767 15.9561 12.4908Z" fill="#0979A6"/>
<path d="M18.6907 40.3173L8.36171 41.9864C7.6559 42.1004 6.9759 41.6096 6.86171 40.9036C6.74752 40.1977 7.23814 39.5177 7.94395 39.4037L18.2729 37.7346C18.9787 37.6205 19.6587 38.1114 19.7729 38.8173C19.8871 39.5232 19.3965 40.2032 18.6907 40.3173Z" fill="#0979A6"/>
<path d="M11.2982 27.3769L6.13368 28.2115C5.42787 28.3255 4.74787 27.8347 4.63368 27.1287C4.5195 26.4228 5.01011 25.7428 5.71593 25.6288L10.8804 24.7942C11.5862 24.6802 12.2662 25.171 12.3804 25.8769C12.4946 26.5829 12.004 27.2629 11.2982 27.3769Z" fill="#0979A6"/>
</svg>
