<svg width="49" height="49" viewBox="0 0 49 49" fill="none" xmlns="http://www.w3.org/2000/svg">
<path d="M32.2448 10.1717L18.8721 8.07746C13.0215 7.16123 10.0141 10.0174 9.26412 14.8908L6.76403 31.1352C6.01401 36.0085 8.02137 39.6501 13.8719 40.5663L27.2446 42.6606C33.0951 43.5768 36.1025 40.7206 36.8526 35.8472L39.3526 19.6028C40.1027 14.7295 38.0953 11.0879 32.2448 10.1717ZM16.3095 24.728L22.9958 25.7751C23.6812 25.8824 24.1645 26.5238 24.062 27.1898C23.9595 27.8558 23.3062 28.3191 22.6208 28.2118L15.9345 27.1647C15.2491 27.0573 14.7658 26.416 14.8683 25.75C14.9708 25.084 15.6241 24.6207 16.3095 24.728ZM28.3071 35.7567L14.9345 33.6624C14.2491 33.5551 13.7658 32.9138 13.8683 32.2478C13.9708 31.5817 14.6241 31.1184 15.3095 31.2258L28.6821 33.32C29.3675 33.4273 29.8508 34.0687 29.7483 34.7347C29.6458 35.4007 28.9925 35.864 28.3071 35.7567ZM34.6112 22.6034L31.268 22.0798C28.7272 21.6819 26.9786 19.3618 27.3587 16.8927L27.8587 13.6438C27.9612 12.9778 28.6145 12.5145 29.2999 12.6218C29.9852 12.7291 30.4686 13.3705 30.3661 14.0365L29.866 17.2854C29.6935 18.4062 30.4896 19.4625 31.643 19.6431L34.9862 20.1667C35.6715 20.274 36.1549 20.9153 36.0524 21.5814C35.9499 22.2474 35.2965 22.7107 34.6112 22.6034Z" fill="#0979A6"/>
<rect width="1.29224" height="9.40672" rx="0.64612" transform="matrix(0.948348 0.317233 -0.323727 0.946151 41.6133 0)" fill="#0979A6"/>
<rect width="1.28212" height="5.95719" rx="0.641062" transform="matrix(0.451759 0.89214 -0.896188 0.443675 47.4229 8.06055)" fill="#0979A6"/>
</svg>
