<svg width="48" height="48" viewBox="0 0 48 48" fill="none" xmlns="http://www.w3.org/2000/svg">
<path d="M30.7937 9.14786V9.14786C35.4861 8.98965 39.7041 12.146 41.0081 16.7913V16.7913" stroke="#0979A6" stroke-width="2"/>
<path d="M31.4944 4.09122V4.09122C37.4782 4.7111 42.692 8.61263 45.1135 14.2825V14.2825" stroke="#0979A6" stroke-width="2"/>
<path d="M22.8721 13.854L23.7793 19.6334L21.5643 20.0022L20.6571 14.2228C20.5926 13.8122 20.2072 13.6735 19.9709 13.7128C19.8971 13.7251 19.8257 13.7526 19.7566 13.7953L8.76044 20.2927C8.02555 20.7272 7.64285 21.5712 7.77893 22.4381L7.93888 23.4571C6.75745 24.7151 6.14644 26.5179 6.44009 28.3886L5.56392 22.8069C5.27983 20.9971 6.10474 19.2054 7.64357 18.2937L18.6521 11.7787C18.9579 11.603 19.288 11.4856 19.6128 11.4315C21.0895 11.1856 22.6119 12.1962 22.8721 13.854Z" fill="#0979A6"/>
<path d="M35.2099 28.2648L35.4487 29.7857C35.5131 30.1964 35.2556 30.5826 34.8445 30.6666L32.6885 31.0256C31.9059 31.156 31.104 30.6808 30.9208 29.8998C30.8025 29.4357 30.9104 28.9651 31.158 28.6118C31.3785 28.2786 31.7238 28.065 32.1225 27.9986L34.3522 27.6273C34.7829 27.5712 35.1455 27.8542 35.2099 28.2648Z" fill="#0979A6"/>
<path d="M31.8578 26.4039L33.364 26.1531C34.1761 26.0179 34.7332 25.2228 34.6019 24.3863L34.4968 23.7171C34.0027 20.5689 31.1036 18.4141 28.0469 18.9231L11.0948 21.7459C9.83959 21.9549 8.75463 22.5725 7.93892 23.4575C6.7575 24.7154 6.14648 26.5183 6.44013 28.389L8.04683 38.6246C8.54101 41.7728 11.44 43.9276 14.4968 43.4186L31.4489 40.5958C34.5056 40.0868 36.5977 37.101 36.1035 33.9527L36.0582 33.6638C35.9269 32.8273 35.1549 32.2535 34.3428 32.3888L33.0581 32.6027C31.6405 32.8387 30.1411 32.1676 29.5499 30.8147C29.0584 29.7104 29.2532 28.5387 29.8746 27.6705C30.3302 27.0016 31.0308 26.5416 31.8578 26.4039ZM23.7179 27.4472L13.3812 29.1684C12.7757 29.2692 12.1925 28.8357 12.0946 28.2121C11.9967 27.5886 12.4176 26.9879 13.0231 26.887L23.3598 25.1658C23.9652 25.065 24.5484 25.4985 24.6463 26.1221C24.7442 26.7457 24.3233 27.3464 23.7179 27.4472Z" fill="#0979A6"/>
<path d="M44.1855 25.4976C44.1855 26.2659 43.5845 26.8633 42.874 26.8633C42.1635 26.8633 41.5625 26.2659 41.5625 25.4976C41.5625 24.7293 42.1635 24.1318 42.874 24.1318C43.5845 24.1318 44.1855 24.7293 44.1855 25.4976Z" fill="#0979A6" stroke="#0979A6"/>
</svg>
